<mxfile host="app.diagrams.net" modified="2022-06-28T12:42:42.549Z" agent="5.0 (Windows NT 10.0; Win64; x64) AppleWebKit/537.36 (KHTML, like Gecko) Chrome/103.0.5060.53 Safari/537.36" etag="XmvM821SLXi4MhTiF3Iv" version="17.4.5" type="github">
  <diagram id="yPxyJZ8AM_hMuL3Unpa9" name="complex gitflow">
    <mxGraphModel dx="3131" dy="1094" grid="1" gridSize="10" guides="1" tooltips="1" connect="1" arrows="1" fold="1" page="1" pageScale="1" pageWidth="1100" pageHeight="850" math="0" shadow="0">
      <root>
        <mxCell id="0" />
        <mxCell id="1" parent="0" />
        <mxCell id="nBreNSzFSE8uNr_BIwcD-4" value="master" style="text;html=1;strokeColor=none;fillColor=none;align=center;verticalAlign=middle;whiteSpace=wrap;overflow=hidden;fontSize=14;fontStyle=1;fontFamily=Courier New;" vertex="1" parent="1">
          <mxGeometry x="-612.37" y="142" width="50" height="42" as="geometry" />
        </mxCell>
        <mxCell id="nBreNSzFSE8uNr_BIwcD-20" style="edgeStyle=orthogonalEdgeStyle;orthogonalLoop=1;jettySize=auto;html=1;exitX=0.855;exitY=0.855;exitDx=0;exitDy=0;exitPerimeter=0;entryX=1.039;entryY=0.095;entryDx=0;entryDy=0;entryPerimeter=0;curved=1;" edge="1" parent="1" source="nBreNSzFSE8uNr_BIwcD-8" target="nBreNSzFSE8uNr_BIwcD-19">
          <mxGeometry relative="1" as="geometry" />
        </mxCell>
        <mxCell id="nBreNSzFSE8uNr_BIwcD-25" style="edgeStyle=orthogonalEdgeStyle;curved=1;orthogonalLoop=1;jettySize=auto;html=1;exitX=0.5;exitY=1;exitDx=0;exitDy=0;exitPerimeter=0;entryX=1.057;entryY=0.071;entryDx=0;entryDy=0;entryPerimeter=0;" edge="1" parent="1" source="nBreNSzFSE8uNr_BIwcD-8" target="nBreNSzFSE8uNr_BIwcD-23">
          <mxGeometry relative="1" as="geometry" />
        </mxCell>
        <mxCell id="nBreNSzFSE8uNr_BIwcD-8" value="" style="verticalLabelPosition=bottom;verticalAlign=top;html=1;strokeWidth=4;shape=mxgraph.flowchart.on-page_reference;plain-purple;gradientColor=none;strokeColor=#000000;fillColor=#D5E8D4;" vertex="1" parent="1">
          <mxGeometry x="-390.62" y="282" width="30" height="30" as="geometry" />
        </mxCell>
        <mxCell id="nBreNSzFSE8uNr_BIwcD-9" value="" style="edgeStyle=orthogonalEdgeStyle;rounded=0;html=1;jettySize=auto;orthogonalLoop=1;strokeWidth=4;endArrow=none;endFill=0;curved=1;startArrow=none;fillColor=#d5e8d4;strokeColor=#82b366;" edge="1" parent="1" source="nBreNSzFSE8uNr_BIwcD-104">
          <mxGeometry x="-316.37" y="296.5" as="geometry">
            <mxPoint x="-358.62" y="296.5" as="sourcePoint" />
            <mxPoint x="1187.63" y="297" as="targetPoint" />
            <Array as="points">
              <mxPoint x="-271.37" y="297" />
            </Array>
          </mxGeometry>
        </mxCell>
        <mxCell id="nBreNSzFSE8uNr_BIwcD-14" style="edgeStyle=orthogonalEdgeStyle;curved=1;rounded=0;orthogonalLoop=1;jettySize=auto;html=1;exitX=0.855;exitY=0.855;exitDx=0;exitDy=0;exitPerimeter=0;entryX=0.5;entryY=0;entryDx=0;entryDy=0;entryPerimeter=0;" edge="1" parent="1" source="nBreNSzFSE8uNr_BIwcD-10" target="nBreNSzFSE8uNr_BIwcD-8">
          <mxGeometry relative="1" as="geometry" />
        </mxCell>
        <mxCell id="nBreNSzFSE8uNr_BIwcD-10" value="" style="verticalLabelPosition=bottom;verticalAlign=top;html=1;strokeWidth=4;shape=mxgraph.flowchart.on-page_reference;plain-blue;gradientColor=none;fillColor=#B5E3Fe;strokeColor=#000000;" vertex="1" parent="1">
          <mxGeometry x="-452.87" y="148" width="30" height="30" as="geometry" />
        </mxCell>
        <mxCell id="nBreNSzFSE8uNr_BIwcD-16" value="develop" style="text;html=1;strokeColor=none;fillColor=none;align=center;verticalAlign=middle;whiteSpace=wrap;overflow=hidden;fontSize=14;fontStyle=1;fontFamily=Courier New;" vertex="1" parent="1">
          <mxGeometry x="-640" y="270" width="71.75" height="42" as="geometry" />
        </mxCell>
        <mxCell id="nBreNSzFSE8uNr_BIwcD-17" value="" style="verticalLabelPosition=bottom;verticalAlign=top;html=1;strokeWidth=4;shape=mxgraph.flowchart.on-page_reference;strokeColor=#000000;fillColor=#fff2cc;" vertex="1" parent="1">
          <mxGeometry x="-190.12" y="362" width="30" height="30" as="geometry" />
        </mxCell>
        <mxCell id="nBreNSzFSE8uNr_BIwcD-18" value="" style="edgeStyle=orthogonalEdgeStyle;rounded=0;html=1;jettySize=auto;orthogonalLoop=1;strokeWidth=4;endArrow=none;endFill=0;startArrow=none;fillColor=#fff2cc;strokeColor=#d6b656;" edge="1" parent="1">
          <mxGeometry x="-260.12" y="378.5" as="geometry">
            <mxPoint x="-157.87" y="374.5" as="sourcePoint" />
            <mxPoint x="167.63" y="372" as="targetPoint" />
            <Array as="points">
              <mxPoint x="-50.120000000000005" y="375" />
              <mxPoint x="-50.120000000000005" y="375" />
            </Array>
          </mxGeometry>
        </mxCell>
        <mxCell id="nBreNSzFSE8uNr_BIwcD-19" value="feature/FATG-593" style="text;html=1;strokeColor=none;fillColor=none;align=center;verticalAlign=middle;whiteSpace=wrap;overflow=hidden;fontSize=14;fontStyle=1;fontFamily=Courier New;" vertex="1" parent="1">
          <mxGeometry x="-355.62" y="356" width="174.63" height="42" as="geometry" />
        </mxCell>
        <mxCell id="nBreNSzFSE8uNr_BIwcD-21" value="" style="verticalLabelPosition=bottom;verticalAlign=top;html=1;strokeWidth=4;shape=mxgraph.flowchart.on-page_reference;strokeColor=#000000;fillColor=#fff2cc;" vertex="1" parent="1">
          <mxGeometry x="-322.37" y="426" width="30" height="30" as="geometry" />
        </mxCell>
        <mxCell id="nBreNSzFSE8uNr_BIwcD-23" value="feature/FATG-773" style="text;html=1;strokeColor=none;fillColor=none;align=center;verticalAlign=middle;whiteSpace=wrap;overflow=hidden;fontSize=14;fontStyle=1;fontFamily=Courier New;" vertex="1" parent="1">
          <mxGeometry x="-487.87" y="420" width="174.63" height="42" as="geometry" />
        </mxCell>
        <mxCell id="nBreNSzFSE8uNr_BIwcD-46" style="edgeStyle=orthogonalEdgeStyle;curved=1;orthogonalLoop=1;jettySize=auto;html=1;entryX=0.5;entryY=1;entryDx=0;entryDy=0;entryPerimeter=0;" edge="1" parent="1" source="nBreNSzFSE8uNr_BIwcD-28" target="nBreNSzFSE8uNr_BIwcD-44">
          <mxGeometry relative="1" as="geometry" />
        </mxCell>
        <mxCell id="nBreNSzFSE8uNr_BIwcD-28" value="" style="verticalLabelPosition=bottom;verticalAlign=top;html=1;strokeWidth=4;shape=mxgraph.flowchart.on-page_reference;strokeColor=#000000;fillColor=#fff2cc;" vertex="1" parent="1">
          <mxGeometry x="167.63" y="362" width="30" height="30" as="geometry" />
        </mxCell>
        <mxCell id="nBreNSzFSE8uNr_BIwcD-33" value="" style="edgeStyle=orthogonalEdgeStyle;rounded=0;html=1;jettySize=auto;orthogonalLoop=1;strokeWidth=4;endArrow=none;endFill=0;startArrow=none;fillColor=#fff2cc;strokeColor=#d6b656;" edge="1" parent="1" source="nBreNSzFSE8uNr_BIwcD-101">
          <mxGeometry x="-392.37" y="446" as="geometry">
            <mxPoint x="-290.12" y="442" as="sourcePoint" />
            <mxPoint x="1227.63" y="442" as="targetPoint" />
            <Array as="points" />
          </mxGeometry>
        </mxCell>
        <mxCell id="nBreNSzFSE8uNr_BIwcD-40" value="" style="verticalLabelPosition=bottom;verticalAlign=top;html=1;strokeWidth=4;shape=mxgraph.flowchart.on-page_reference;fillColor=#f8cecc;strokeColor=#000000;" vertex="1" parent="1">
          <mxGeometry x="327.63" y="202" width="30" height="30" as="geometry" />
        </mxCell>
        <mxCell id="nBreNSzFSE8uNr_BIwcD-44" value="" style="verticalLabelPosition=bottom;verticalAlign=top;html=1;strokeWidth=4;shape=mxgraph.flowchart.on-page_reference;plain-purple;gradientColor=none;strokeColor=#000000;fillColor=#D5E8D4;" vertex="1" parent="1">
          <mxGeometry x="227.63" y="282" width="30" height="30" as="geometry" />
        </mxCell>
        <mxCell id="nBreNSzFSE8uNr_BIwcD-45" value="" style="edgeStyle=orthogonalEdgeStyle;rounded=0;html=1;jettySize=auto;orthogonalLoop=1;strokeWidth=4;endArrow=none;endFill=0;curved=1;fillColor=#d5e8d4;strokeColor=#82b366;" edge="1" parent="1" target="nBreNSzFSE8uNr_BIwcD-44">
          <mxGeometry x="-316.37" y="296.5" as="geometry">
            <mxPoint x="-358.62" y="296.5" as="sourcePoint" />
            <mxPoint x="518.63" y="297" as="targetPoint" />
            <Array as="points">
              <mxPoint x="-271.37" y="297" />
            </Array>
          </mxGeometry>
        </mxCell>
        <mxCell id="nBreNSzFSE8uNr_BIwcD-49" style="edgeStyle=orthogonalEdgeStyle;curved=1;orthogonalLoop=1;jettySize=auto;html=1;entryX=0;entryY=0.5;entryDx=0;entryDy=0;entryPerimeter=0;" edge="1" parent="1" source="nBreNSzFSE8uNr_BIwcD-47" target="nBreNSzFSE8uNr_BIwcD-40">
          <mxGeometry relative="1" as="geometry" />
        </mxCell>
        <mxCell id="nBreNSzFSE8uNr_BIwcD-47" value="" style="verticalLabelPosition=bottom;verticalAlign=top;html=1;strokeWidth=4;shape=mxgraph.flowchart.on-page_reference;plain-purple;gradientColor=none;strokeColor=#000000;fillColor=#D5E8D4;" vertex="1" parent="1">
          <mxGeometry x="269.88" y="282" width="30" height="30" as="geometry" />
        </mxCell>
        <mxCell id="nBreNSzFSE8uNr_BIwcD-48" value="" style="edgeStyle=orthogonalEdgeStyle;rounded=0;html=1;jettySize=auto;orthogonalLoop=1;strokeWidth=4;endArrow=none;endFill=0;curved=1;startArrow=none;fillColor=#d5e8d4;strokeColor=#82b366;" edge="1" parent="1" source="nBreNSzFSE8uNr_BIwcD-44" target="nBreNSzFSE8uNr_BIwcD-47">
          <mxGeometry x="-316.37" y="296.5" as="geometry">
            <mxPoint x="227.63" y="297" as="sourcePoint" />
            <mxPoint x="518.63" y="297" as="targetPoint" />
            <Array as="points" />
          </mxGeometry>
        </mxCell>
        <mxCell id="nBreNSzFSE8uNr_BIwcD-51" value="release/V-1.0" style="text;html=1;strokeColor=none;fillColor=none;align=center;verticalAlign=middle;whiteSpace=wrap;overflow=hidden;fontSize=14;fontStyle=1;fontFamily=Courier New;" vertex="1" parent="1">
          <mxGeometry x="177.63" y="196" width="130" height="42" as="geometry" />
        </mxCell>
        <mxCell id="nBreNSzFSE8uNr_BIwcD-60" value="" style="edgeStyle=orthogonalEdgeStyle;rounded=0;html=1;jettySize=auto;orthogonalLoop=1;strokeWidth=4;endArrow=none;endFill=0;startArrow=none;fillColor=#f8cecc;strokeColor=#b85450;" edge="1" parent="1">
          <mxGeometry x="255.38" y="222" as="geometry">
            <mxPoint x="357.63" y="218" as="sourcePoint" />
            <mxPoint x="577.63" y="219" as="targetPoint" />
            <Array as="points">
              <mxPoint x="465.38" y="218.5" />
              <mxPoint x="465.38" y="218.5" />
            </Array>
          </mxGeometry>
        </mxCell>
        <mxCell id="nBreNSzFSE8uNr_BIwcD-74" style="edgeStyle=orthogonalEdgeStyle;curved=1;orthogonalLoop=1;jettySize=auto;html=1;" edge="1" parent="1" source="nBreNSzFSE8uNr_BIwcD-61">
          <mxGeometry relative="1" as="geometry">
            <mxPoint x="657.63" y="182" as="targetPoint" />
          </mxGeometry>
        </mxCell>
        <mxCell id="nBreNSzFSE8uNr_BIwcD-79" style="edgeStyle=orthogonalEdgeStyle;curved=1;orthogonalLoop=1;jettySize=auto;html=1;" edge="1" parent="1" source="nBreNSzFSE8uNr_BIwcD-61" target="nBreNSzFSE8uNr_BIwcD-77">
          <mxGeometry relative="1" as="geometry" />
        </mxCell>
        <mxCell id="nBreNSzFSE8uNr_BIwcD-61" value="" style="verticalLabelPosition=bottom;verticalAlign=top;html=1;strokeWidth=4;shape=mxgraph.flowchart.on-page_reference;fillColor=#f8cecc;strokeColor=#000000;" vertex="1" parent="1">
          <mxGeometry x="577.63" y="202" width="30" height="30" as="geometry" />
        </mxCell>
        <mxCell id="nBreNSzFSE8uNr_BIwcD-64" value="" style="verticalLabelPosition=bottom;verticalAlign=top;html=1;strokeWidth=4;shape=mxgraph.flowchart.on-page_reference;plain-blue;gradientColor=none;fillColor=#B5E3Fe;strokeColor=#000000;" vertex="1" parent="1">
          <mxGeometry x="647.63" y="148" width="30" height="30" as="geometry" />
        </mxCell>
        <mxCell id="nBreNSzFSE8uNr_BIwcD-75" value="Tag: 1.0" style="text;html=1;strokeColor=none;fillColor=none;align=center;verticalAlign=middle;whiteSpace=wrap;overflow=hidden;fontSize=14;" vertex="1" parent="1">
          <mxGeometry x="607.63" y="122" width="110" height="20" as="geometry" />
        </mxCell>
        <mxCell id="nBreNSzFSE8uNr_BIwcD-114" style="edgeStyle=orthogonalEdgeStyle;curved=1;orthogonalLoop=1;jettySize=auto;html=1;" edge="1" parent="1" source="nBreNSzFSE8uNr_BIwcD-77">
          <mxGeometry relative="1" as="geometry">
            <mxPoint x="592.63" y="422" as="targetPoint" />
          </mxGeometry>
        </mxCell>
        <mxCell id="nBreNSzFSE8uNr_BIwcD-77" value="" style="verticalLabelPosition=bottom;verticalAlign=top;html=1;strokeWidth=4;shape=mxgraph.flowchart.on-page_reference;plain-purple;gradientColor=none;strokeColor=#000000;fillColor=#D5E8D4;" vertex="1" parent="1">
          <mxGeometry x="577.63" y="282" width="30" height="30" as="geometry" />
        </mxCell>
        <mxCell id="nBreNSzFSE8uNr_BIwcD-87" style="edgeStyle=orthogonalEdgeStyle;curved=1;orthogonalLoop=1;jettySize=auto;html=1;entryX=0;entryY=0.5;entryDx=0;entryDy=0;entryPerimeter=0;" edge="1" parent="1" source="nBreNSzFSE8uNr_BIwcD-81" target="nBreNSzFSE8uNr_BIwcD-85">
          <mxGeometry relative="1" as="geometry" />
        </mxCell>
        <mxCell id="nBreNSzFSE8uNr_BIwcD-81" value="" style="verticalLabelPosition=bottom;verticalAlign=top;html=1;strokeWidth=4;shape=mxgraph.flowchart.on-page_reference;plain-blue;gradientColor=none;fillColor=#B5E3Fe;strokeColor=#000000;" vertex="1" parent="1">
          <mxGeometry x="727.63" y="148" width="30" height="30" as="geometry" />
        </mxCell>
        <mxCell id="nBreNSzFSE8uNr_BIwcD-85" value="" style="verticalLabelPosition=bottom;verticalAlign=top;html=1;strokeWidth=4;shape=mxgraph.flowchart.on-page_reference;fillColor=#d80073;strokeColor=#000000;fontColor=#ffffff;" vertex="1" parent="1">
          <mxGeometry x="777.63" y="72" width="30" height="30" as="geometry" />
        </mxCell>
        <mxCell id="nBreNSzFSE8uNr_BIwcD-86" value="" style="edgeStyle=orthogonalEdgeStyle;rounded=0;html=1;jettySize=auto;orthogonalLoop=1;strokeWidth=4;endArrow=none;endFill=0;curved=1;startArrow=none;fillColor=#d80073;strokeColor=#A50040;" edge="1" parent="1" target="nBreNSzFSE8uNr_BIwcD-85">
          <mxGeometry x="492.63" y="86" as="geometry">
            <mxPoint x="967.63" y="87" as="sourcePoint" />
            <mxPoint x="1087.63" y="87" as="targetPoint" />
            <Array as="points" />
          </mxGeometry>
        </mxCell>
        <mxCell id="nBreNSzFSE8uNr_BIwcD-88" value="hotfix/HF-1" style="text;html=1;strokeColor=none;fillColor=none;align=center;verticalAlign=middle;whiteSpace=wrap;overflow=hidden;fontSize=14;fontStyle=1;fontFamily=Courier New;" vertex="1" parent="1">
          <mxGeometry x="847.63" y="40" width="100" height="42" as="geometry" />
        </mxCell>
        <mxCell id="nBreNSzFSE8uNr_BIwcD-95" style="edgeStyle=orthogonalEdgeStyle;curved=1;orthogonalLoop=1;jettySize=auto;html=1;entryX=0.5;entryY=0;entryDx=0;entryDy=0;entryPerimeter=0;" edge="1" parent="1" source="nBreNSzFSE8uNr_BIwcD-89" target="nBreNSzFSE8uNr_BIwcD-92">
          <mxGeometry relative="1" as="geometry" />
        </mxCell>
        <mxCell id="nBreNSzFSE8uNr_BIwcD-89" value="" style="verticalLabelPosition=bottom;verticalAlign=top;html=1;strokeWidth=4;shape=mxgraph.flowchart.on-page_reference;fillColor=#d80073;strokeColor=#000000;fontColor=#ffffff;" vertex="1" parent="1">
          <mxGeometry x="967.63" y="72" width="30" height="30" as="geometry" />
        </mxCell>
        <mxCell id="nBreNSzFSE8uNr_BIwcD-99" style="edgeStyle=orthogonalEdgeStyle;curved=1;orthogonalLoop=1;jettySize=auto;html=1;entryX=0.5;entryY=0;entryDx=0;entryDy=0;entryPerimeter=0;" edge="1" parent="1" source="nBreNSzFSE8uNr_BIwcD-92" target="nBreNSzFSE8uNr_BIwcD-96">
          <mxGeometry relative="1" as="geometry" />
        </mxCell>
        <mxCell id="nBreNSzFSE8uNr_BIwcD-92" value="" style="verticalLabelPosition=bottom;verticalAlign=top;html=1;strokeWidth=4;shape=mxgraph.flowchart.on-page_reference;plain-blue;gradientColor=none;fillColor=#B5E3Fe;strokeColor=#000000;" vertex="1" parent="1">
          <mxGeometry x="967.63" y="148" width="30" height="30" as="geometry" />
        </mxCell>
        <mxCell id="nBreNSzFSE8uNr_BIwcD-94" value="" style="edgeStyle=orthogonalEdgeStyle;rounded=0;html=1;jettySize=auto;orthogonalLoop=1;strokeWidth=4;endArrow=none;endFill=0;startArrow=none;fillColor=#dae8fc;strokeColor=#6c8ebf;" edge="1" parent="1" source="nBreNSzFSE8uNr_BIwcD-81" target="nBreNSzFSE8uNr_BIwcD-92">
          <mxGeometry x="-427.37" y="162.5" as="geometry">
            <mxPoint x="727.63" y="163" as="sourcePoint" />
            <mxPoint x="1107.63" y="152" as="targetPoint" />
            <Array as="points" />
          </mxGeometry>
        </mxCell>
        <mxCell id="nBreNSzFSE8uNr_BIwcD-103" style="edgeStyle=orthogonalEdgeStyle;curved=1;orthogonalLoop=1;jettySize=auto;html=1;exitX=0.5;exitY=1;exitDx=0;exitDy=0;exitPerimeter=0;entryX=0.5;entryY=0;entryDx=0;entryDy=0;entryPerimeter=0;" edge="1" parent="1" source="nBreNSzFSE8uNr_BIwcD-96" target="nBreNSzFSE8uNr_BIwcD-101">
          <mxGeometry relative="1" as="geometry" />
        </mxCell>
        <mxCell id="nBreNSzFSE8uNr_BIwcD-96" value="" style="verticalLabelPosition=bottom;verticalAlign=top;html=1;strokeWidth=4;shape=mxgraph.flowchart.on-page_reference;plain-purple;gradientColor=none;strokeColor=#000000;fillColor=#D5E8D4;" vertex="1" parent="1">
          <mxGeometry x="967.63" y="282" width="30" height="30" as="geometry" />
        </mxCell>
        <mxCell id="nBreNSzFSE8uNr_BIwcD-98" value="" style="edgeStyle=orthogonalEdgeStyle;rounded=0;html=1;jettySize=auto;orthogonalLoop=1;strokeWidth=4;endArrow=none;endFill=0;curved=1;startArrow=none;fillColor=#d5e8d4;strokeColor=#82b366;" edge="1" parent="1" source="nBreNSzFSE8uNr_BIwcD-47" target="nBreNSzFSE8uNr_BIwcD-96">
          <mxGeometry x="-316.37" y="296.5" as="geometry">
            <mxPoint x="269.88" y="297" as="sourcePoint" />
            <mxPoint x="1187.63" y="297" as="targetPoint" />
            <Array as="points" />
          </mxGeometry>
        </mxCell>
        <mxCell id="nBreNSzFSE8uNr_BIwcD-107" style="edgeStyle=orthogonalEdgeStyle;curved=1;orthogonalLoop=1;jettySize=auto;html=1;entryX=0.5;entryY=1;entryDx=0;entryDy=0;entryPerimeter=0;" edge="1" parent="1" source="nBreNSzFSE8uNr_BIwcD-101" target="nBreNSzFSE8uNr_BIwcD-104">
          <mxGeometry relative="1" as="geometry" />
        </mxCell>
        <mxCell id="nBreNSzFSE8uNr_BIwcD-101" value="" style="verticalLabelPosition=bottom;verticalAlign=top;html=1;strokeWidth=4;shape=mxgraph.flowchart.on-page_reference;strokeColor=#000000;fillColor=#fff2cc;" vertex="1" parent="1">
          <mxGeometry x="967.63" y="426" width="30" height="30" as="geometry" />
        </mxCell>
        <mxCell id="nBreNSzFSE8uNr_BIwcD-102" value="" style="edgeStyle=orthogonalEdgeStyle;rounded=0;html=1;jettySize=auto;orthogonalLoop=1;strokeWidth=4;endArrow=none;endFill=0;startArrow=none;fillColor=#fff2cc;strokeColor=#d6b656;" edge="1" parent="1" source="nBreNSzFSE8uNr_BIwcD-112" target="nBreNSzFSE8uNr_BIwcD-101">
          <mxGeometry x="-392.37" y="446" as="geometry">
            <mxPoint x="-290.12" y="442" as="sourcePoint" />
            <mxPoint x="1227.63" y="442" as="targetPoint" />
            <Array as="points">
              <mxPoint x="-182.37" y="442" />
              <mxPoint x="-182.37" y="443" />
              <mxPoint x="35.629999999999995" y="443" />
            </Array>
          </mxGeometry>
        </mxCell>
        <mxCell id="nBreNSzFSE8uNr_BIwcD-104" value="" style="verticalLabelPosition=bottom;verticalAlign=top;html=1;strokeWidth=4;shape=mxgraph.flowchart.on-page_reference;plain-purple;gradientColor=none;strokeColor=#000000;fillColor=#D5E8D4;" vertex="1" parent="1">
          <mxGeometry x="1107.63" y="282" width="30" height="30" as="geometry" />
        </mxCell>
        <mxCell id="nBreNSzFSE8uNr_BIwcD-106" value="" style="edgeStyle=orthogonalEdgeStyle;rounded=0;html=1;jettySize=auto;orthogonalLoop=1;strokeWidth=4;endArrow=none;endFill=0;curved=1;startArrow=none;fillColor=#d5e8d4;strokeColor=#82b366;" edge="1" parent="1" source="nBreNSzFSE8uNr_BIwcD-96" target="nBreNSzFSE8uNr_BIwcD-104">
          <mxGeometry x="-316.37" y="296.5" as="geometry">
            <mxPoint x="967.63" y="297" as="sourcePoint" />
            <mxPoint x="1187.63" y="297" as="targetPoint" />
            <Array as="points" />
          </mxGeometry>
        </mxCell>
        <mxCell id="nBreNSzFSE8uNr_BIwcD-108" value="Develop branch is created from Master&amp;nbsp;" style="text;html=1;strokeColor=none;fillColor=none;align=left;verticalAlign=middle;whiteSpace=wrap;overflow=hidden;fontSize=14;fontStyle=0;fontColor=#009900;" vertex="1" parent="1">
          <mxGeometry x="-640" y="302" width="265.25" height="20" as="geometry" />
        </mxCell>
        <mxCell id="nBreNSzFSE8uNr_BIwcD-109" value="" style="endArrow=classic;html=1;strokeWidth=1;fontFamily=Courier New;fontColor=#009900;curved=1;" edge="1" parent="1">
          <mxGeometry width="50" height="50" relative="1" as="geometry">
            <mxPoint x="-562.37" y="296" as="sourcePoint" />
            <mxPoint x="-403.62" y="296.28999999999996" as="targetPoint" />
          </mxGeometry>
        </mxCell>
        <mxCell id="nBreNSzFSE8uNr_BIwcD-111" value="" style="endArrow=classic;html=1;strokeWidth=1;fontFamily=Courier New;fontColor=#009900;curved=1;" edge="1" parent="1">
          <mxGeometry width="50" height="50" relative="1" as="geometry">
            <mxPoint x="-552.37" y="162" as="sourcePoint" />
            <mxPoint x="-462.37" y="162" as="targetPoint" />
          </mxGeometry>
        </mxCell>
        <mxCell id="nBreNSzFSE8uNr_BIwcD-112" value="" style="verticalLabelPosition=bottom;verticalAlign=top;html=1;strokeWidth=4;shape=mxgraph.flowchart.on-page_reference;strokeColor=#000000;fillColor=#fff2cc;" vertex="1" parent="1">
          <mxGeometry x="577.63" y="426" width="30" height="30" as="geometry" />
        </mxCell>
        <mxCell id="nBreNSzFSE8uNr_BIwcD-113" value="" style="edgeStyle=orthogonalEdgeStyle;rounded=0;html=1;jettySize=auto;orthogonalLoop=1;strokeWidth=4;endArrow=none;endFill=0;startArrow=none;fillColor=#fff2cc;strokeColor=#d6b656;" edge="1" parent="1" target="nBreNSzFSE8uNr_BIwcD-112">
          <mxGeometry x="-392.37" y="446" as="geometry">
            <mxPoint x="-290.12000000000046" y="442" as="sourcePoint" />
            <mxPoint x="967.63" y="441" as="targetPoint" />
            <Array as="points" />
          </mxGeometry>
        </mxCell>
        <mxCell id="nBreNSzFSE8uNr_BIwcD-115" value="&lt;div&gt;Code change has to merge in &lt;b&gt;develop &lt;/b&gt;branch&lt;/div&gt;" style="text;html=1;strokeColor=none;fillColor=none;align=left;verticalAlign=middle;whiteSpace=wrap;overflow=hidden;fontSize=12;fontStyle=0;fontColor=#000000;" vertex="1" parent="1">
          <mxGeometry x="597.63" y="238" width="418.25" height="36" as="geometry" />
        </mxCell>
        <mxCell id="nBreNSzFSE8uNr_BIwcD-116" value="&lt;div&gt;Code change has to merge in &lt;b&gt;feature&amp;nbsp;&lt;/b&gt;branch&lt;/div&gt;" style="text;html=1;strokeColor=none;fillColor=none;align=left;verticalAlign=middle;whiteSpace=wrap;overflow=hidden;fontSize=12;fontStyle=0;fontColor=#000000;" vertex="1" parent="1">
          <mxGeometry x="597.63" y="336" width="418.25" height="36" as="geometry" />
        </mxCell>
        <mxCell id="nBreNSzFSE8uNr_BIwcD-118" value="" style="edgeStyle=orthogonalEdgeStyle;rounded=0;html=1;jettySize=auto;orthogonalLoop=1;strokeWidth=4;endArrow=none;endFill=0;curved=1;fillColor=#dae8fc;strokeColor=#6c8ebf;entryX=-0.122;entryY=0.459;entryDx=0;entryDy=0;entryPerimeter=0;" edge="1" parent="1" target="nBreNSzFSE8uNr_BIwcD-64">
          <mxGeometry x="-376.37" y="162.36" as="geometry">
            <mxPoint x="-418.62" y="162.3599999999998" as="sourcePoint" />
            <mxPoint x="637.63" y="162" as="targetPoint" />
            <Array as="points">
              <mxPoint x="-331.37" y="162" />
            </Array>
          </mxGeometry>
        </mxCell>
        <mxCell id="nBreNSzFSE8uNr_BIwcD-119" value="" style="edgeStyle=orthogonalEdgeStyle;rounded=0;html=1;jettySize=auto;orthogonalLoop=1;strokeWidth=4;endArrow=none;endFill=0;startArrow=none;fillColor=#dae8fc;strokeColor=#6c8ebf;exitX=1;exitY=0.5;exitDx=0;exitDy=0;exitPerimeter=0;" edge="1" parent="1" source="nBreNSzFSE8uNr_BIwcD-64">
          <mxGeometry x="-517.37" y="162" as="geometry">
            <mxPoint x="667.63" y="162.5" as="sourcePoint" />
            <mxPoint x="727.63" y="162.5" as="targetPoint" />
            <Array as="points" />
          </mxGeometry>
        </mxCell>
        <mxCell id="nBreNSzFSE8uNr_BIwcD-120" value="" style="edgeStyle=orthogonalEdgeStyle;rounded=0;html=1;jettySize=auto;orthogonalLoop=1;strokeWidth=4;endArrow=none;endFill=0;startArrow=none;fillColor=#dae8fc;strokeColor=#6c8ebf;" edge="1" parent="1">
          <mxGeometry x="-187.37" y="161.90999999999997" as="geometry">
            <mxPoint x="997.63" y="162.40999999999997" as="sourcePoint" />
            <mxPoint x="1207.63" y="162.40999999999997" as="targetPoint" />
            <Array as="points" />
          </mxGeometry>
        </mxCell>
        <mxCell id="nBreNSzFSE8uNr_BIwcD-122" value="&lt;b&gt;develop &lt;/b&gt;branch contains stable features for the next release" style="text;html=1;strokeColor=none;fillColor=none;align=left;verticalAlign=middle;whiteSpace=wrap;overflow=hidden;fontSize=12;fontStyle=0;fontColor=#000000;" vertex="1" parent="1">
          <mxGeometry x="-320.12" y="262" width="418.25" height="36" as="geometry" />
        </mxCell>
        <mxCell id="nBreNSzFSE8uNr_BIwcD-123" value="&lt;b&gt;master&amp;nbsp;&lt;/b&gt;branch is used for Production Releases" style="text;html=1;strokeColor=none;fillColor=none;align=left;verticalAlign=middle;whiteSpace=wrap;overflow=hidden;fontSize=12;fontStyle=0;fontColor=#000000;" vertex="1" parent="1">
          <mxGeometry x="-320.12" y="133" width="418.25" height="36" as="geometry" />
        </mxCell>
        <mxCell id="nBreNSzFSE8uNr_BIwcD-124" value="integrate &lt;b&gt;feature&lt;/b&gt; branch when its stable and tested" style="text;html=1;strokeColor=none;fillColor=none;align=left;verticalAlign=middle;whiteSpace=wrap;overflow=hidden;fontSize=12;fontStyle=0;fontColor=#000000;" vertex="1" parent="1">
          <mxGeometry x="-139.37" y="336" width="418.25" height="36" as="geometry" />
        </mxCell>
        <mxCell id="nBreNSzFSE8uNr_BIwcD-126" value="&lt;div&gt;any &lt;b&gt;hotfix&lt;/b&gt; branch changes has to be merged to &lt;b&gt;master/develop&lt;/b&gt;&lt;/div&gt;" style="text;html=1;strokeColor=none;fillColor=none;align=left;verticalAlign=middle;whiteSpace=wrap;overflow=hidden;fontSize=12;fontStyle=0;fontColor=#000000;" vertex="1" parent="1">
          <mxGeometry x="990" y="112" width="418.25" height="36" as="geometry" />
        </mxCell>
        <mxCell id="nBreNSzFSE8uNr_BIwcD-127" value="&lt;div&gt;any &lt;b&gt;hotfix&lt;/b&gt; branch changes has to be merged to &lt;b&gt;develop/feature&lt;/b&gt;&lt;/div&gt;" style="text;html=1;strokeColor=none;fillColor=none;align=left;verticalAlign=middle;whiteSpace=wrap;overflow=hidden;fontSize=12;fontStyle=0;fontColor=#000000;" vertex="1" parent="1">
          <mxGeometry x="990" y="220" width="418.25" height="36" as="geometry" />
        </mxCell>
        <mxCell id="nBreNSzFSE8uNr_BIwcD-128" value="integrate &lt;b&gt;feature&lt;/b&gt; branch when its stable and tested" style="text;html=1;strokeColor=none;fillColor=none;align=left;verticalAlign=middle;whiteSpace=wrap;overflow=hidden;fontSize=12;fontStyle=0;fontColor=#000000;" vertex="1" parent="1">
          <mxGeometry x="1110" y="392" width="418.25" height="36" as="geometry" />
        </mxCell>
        <mxCell id="nBreNSzFSE8uNr_BIwcD-129" value="&lt;div&gt;create&amp;nbsp;&lt;b&gt;hotfix&lt;/b&gt; branch to patch Production released version&lt;/div&gt;" style="text;html=1;strokeColor=none;fillColor=none;align=left;verticalAlign=middle;whiteSpace=wrap;overflow=hidden;fontSize=12;fontStyle=0;fontColor=#000000;" vertex="1" parent="1">
          <mxGeometry x="750" y="20" width="418.25" height="36" as="geometry" />
        </mxCell>
        <mxCell id="nBreNSzFSE8uNr_BIwcD-130" value="Tag: 1.1" style="text;html=1;strokeColor=none;fillColor=none;align=center;verticalAlign=middle;whiteSpace=wrap;overflow=hidden;fontSize=14;" vertex="1" parent="1">
          <mxGeometry x="887.63" y="128" width="110" height="20" as="geometry" />
        </mxCell>
      </root>
    </mxGraphModel>
  </diagram>
</mxfile>
